<?xml version="1.0" encoding="UTF-8" standalone="no"?>
<!DOCTYPE svg PUBLIC "-//W3C//DTD SVG 1.1//EN"
 "http://www.w3.org/Graphics/SVG/1.1/DTD/svg11.dtd">
<!-- Generated by graphviz version 2.46.1 (20210213.1702)
 -->
<!-- Pages: 1 -->
<svg width="231pt" height="575pt"
 viewBox="0.00 0.00 231.19 575.39" xmlns="http://www.w3.org/2000/svg" xmlns:xlink="http://www.w3.org/1999/xlink">
<g id="graph0" class="graph" transform="scale(1 1) rotate(0) translate(4 571.39)">
<polygon fill="white" stroke="transparent" points="-4,4 -4,-571.39 227.19,-571.39 227.19,4 -4,4"/>
<!-- fake -->
<g id="node1" class="node">
<title>fake</title>
</g>
<!-- {&#39;q0&#39;} -->
<g id="node2" class="node">
<title>{&#39;q0&#39;}</title>
<ellipse fill="none" stroke="black" cx="32.5" cy="-476.39" rx="32.49" ry="18"/>
<text text-anchor="middle" x="32.5" y="-472.69" font-family="Times New Roman,serif" font-size="14.00">{&#39;q0&#39;}</text>
</g>
<!-- fake&#45;&gt;{&#39;q0&#39;} -->
<g id="edge1" class="edge">
<title>fake&#45;&gt;{&#39;q0&#39;}</title>
<path fill="none" stroke="black" stroke-width="2" d="M32.5,-531.2C32.5,-523.17 32.5,-513.43 32.5,-504.45"/>
<polygon fill="black" stroke="black" stroke-width="2" points="36,-504.41 32.5,-494.41 29,-504.41 36,-504.41"/>
</g>
<!-- {&#39;q2&#39;} -->
<g id="node4" class="node">
<title>{&#39;q2&#39;}</title>
<ellipse fill="none" stroke="black" cx="62.5" cy="-141.99" rx="32.49" ry="18"/>
<text text-anchor="middle" x="62.5" y="-138.29" font-family="Times New Roman,serif" font-size="14.00">{&#39;q2&#39;}</text>
</g>
<!-- {&#39;q0&#39;}&#45;&gt;{&#39;q2&#39;} -->
<g id="edge2" class="edge">
<title>{&#39;q0&#39;}&#45;&gt;{&#39;q2&#39;}</title>
<path fill="none" stroke="black" d="M32.53,-458.06C32.67,-437.4 33.26,-401.83 35.5,-371.39 40.85,-298.49 52.35,-213.06 58.47,-170.3"/>
<polygon fill="black" stroke="black" points="61.98,-170.53 59.94,-160.13 55.05,-169.53 61.98,-170.53"/>
<text text-anchor="middle" x="41.5" y="-342.19" font-family="Times New Roman,serif" font-size="14.00">b</text>
</g>
<!-- {&#39;q1&#39;} -->
<g id="node5" class="node">
<title>{&#39;q1&#39;}</title>
<ellipse fill="none" stroke="black" cx="76.5" cy="-389.39" rx="32.49" ry="18"/>
<text text-anchor="middle" x="76.5" y="-385.69" font-family="Times New Roman,serif" font-size="14.00">{&#39;q1&#39;}</text>
</g>
<!-- {&#39;q0&#39;}&#45;&gt;{&#39;q1&#39;} -->
<g id="edge3" class="edge">
<title>{&#39;q0&#39;}&#45;&gt;{&#39;q1&#39;}</title>
<path fill="none" stroke="black" d="M40.98,-459C47.27,-446.85 55.97,-430.05 63.18,-416.11"/>
<polygon fill="black" stroke="black" points="66.4,-417.5 67.89,-407.01 60.18,-414.29 66.4,-417.5"/>
<text text-anchor="middle" x="60" y="-429.19" font-family="Times New Roman,serif" font-size="14.00">a</text>
</g>
<!-- {&#39;q3&#39;} -->
<g id="node3" class="node">
<title>{&#39;q3&#39;}</title>
<ellipse fill="none" stroke="black" cx="62.5" cy="-36.5" rx="32.49" ry="32.49"/>
<ellipse fill="none" stroke="black" cx="62.5" cy="-36.5" rx="36.49" ry="36.49"/>
<text text-anchor="middle" x="62.5" y="-32.8" font-family="Times New Roman,serif" font-size="14.00">{&#39;q3&#39;}</text>
</g>
<!-- {&#39;q2&#39;}&#45;&gt;{&#39;q3&#39;} -->
<g id="edge4" class="edge">
<title>{&#39;q2&#39;}&#45;&gt;{&#39;q3&#39;}</title>
<path fill="none" stroke="black" d="M62.5,-123.9C62.5,-112.82 62.5,-97.8 62.5,-83.39"/>
<polygon fill="black" stroke="black" points="66,-83.08 62.5,-73.08 59,-83.08 66,-83.08"/>
<text text-anchor="middle" x="66.5" y="-94.79" font-family="Times New Roman,serif" font-size="14.00">b</text>
</g>
<!-- {&#39;q1&#39;}&#45;&gt;{&#39;q2&#39;} -->
<g id="edge5" class="edge">
<title>{&#39;q1&#39;}&#45;&gt;{&#39;q2&#39;}</title>
<path fill="none" stroke="black" d="M75.14,-371.35C74.06,-357.6 72.58,-337.75 71.5,-320.39 68.2,-267.34 65.26,-205.32 63.7,-170.45"/>
<polygon fill="black" stroke="black" points="67.18,-169.96 63.24,-160.13 60.19,-170.27 67.18,-169.96"/>
<text text-anchor="middle" x="75.5" y="-261.99" font-family="Times New Roman,serif" font-size="14.00">b</text>
</g>
<!-- {&#39;q1&#39;, &#39;q3&#39;} -->
<g id="node6" class="node">
<title>{&#39;q1&#39;, &#39;q3&#39;}</title>
<ellipse fill="none" stroke="black" cx="143.5" cy="-265.69" rx="50.88" ry="50.88"/>
<ellipse fill="none" stroke="black" cx="143.5" cy="-265.69" rx="54.89" ry="54.89"/>
<text text-anchor="middle" x="143.5" y="-261.99" font-family="Times New Roman,serif" font-size="14.00">{&#39;q1&#39;, &#39;q3&#39;}</text>
</g>
<!-- {&#39;q1&#39;}&#45;&gt;{&#39;q1&#39;, &#39;q3&#39;} -->
<g id="edge6" class="edge">
<title>{&#39;q1&#39;}&#45;&gt;{&#39;q1&#39;, &#39;q3&#39;}</title>
<path fill="none" stroke="black" d="M85.53,-371.97C92.5,-359.32 102.57,-341.03 112.36,-323.24"/>
<polygon fill="black" stroke="black" points="115.69,-324.46 117.44,-314.01 109.56,-321.08 115.69,-324.46"/>
<text text-anchor="middle" x="107" y="-342.19" font-family="Times New Roman,serif" font-size="14.00">a</text>
</g>
<!-- {&#39;q1&#39;, &#39;q3&#39;}&#45;&gt;{&#39;q2&#39;} -->
<g id="edge7" class="edge">
<title>{&#39;q1&#39;, &#39;q3&#39;}&#45;&gt;{&#39;q2&#39;}</title>
<path fill="none" stroke="black" d="M113.57,-219.72C101.85,-202.11 88.86,-182.6 78.91,-167.66"/>
<polygon fill="black" stroke="black" points="81.61,-165.39 73.15,-159 75.78,-169.27 81.61,-165.39"/>
<text text-anchor="middle" x="99.5" y="-181.79" font-family="Times New Roman,serif" font-size="14.00">b</text>
</g>
<!-- {&#39;q1&#39;, &#39;q3&#39;}&#45;&gt;{&#39;q1&#39;, &#39;q3&#39;} -->
<g id="edge8" class="edge">
<title>{&#39;q1&#39;, &#39;q3&#39;}&#45;&gt;{&#39;q1&#39;, &#39;q3&#39;}</title>
<path fill="none" stroke="black" d="M196.43,-280.25C207.88,-278.82 216.19,-273.97 216.19,-265.69 216.19,-260.13 212.44,-256.11 206.51,-253.64"/>
<polygon fill="black" stroke="black" points="206.98,-250.15 196.43,-251.13 205.28,-256.94 206.98,-250.15"/>
<text text-anchor="middle" x="219.69" y="-261.99" font-family="Times New Roman,serif" font-size="14.00">a</text>
</g>
</g>
</svg>
